<svg xmlns="http://www.w3.org/2000/svg" viewBox="0 0 200 280">
  <defs>
    <linearGradient id="ucityGrad" x1="0%" y1="0%" x2="100%" y2="100%">
      <stop offset="0%" style="stop-color:#0a1a0a;stop-opacity:1" />
      <stop offset="100%" style="stop-color:#1a3a1a;stop-opacity:1" />
    </linearGradient>
  </defs>
  <rect width="200" height="280" fill="url(#ucityGrad)"/>
  <text x="100" y="70" font-family="Arial Black, sans-serif" font-size="40" fill="#00ff80" text-anchor="middle">μCITY</text>
  <text x="100" y="100" font-family="Arial" font-size="12" fill="#00ff80" text-anchor="middle">SIMCITY FOR GAME BOY</text>
  <rect x="40" y="130" width="20" height="20" fill="#4a4a4a"/>
  <rect x="65" y="130" width="20" height="20" fill="#00ff80"/>
  <rect x="90" y="130" width="20" height="20" fill="#4a4a4a"/>
  <rect x="115" y="130" width="20" height="20" fill="#ffff00"/>
  <rect x="140" y="130" width="20" height="20" fill="#4a4a4a"/>
  <rect x="40" y="155" width="20" height="20" fill="#4a4a4a"/>
  <rect x="65" y="155" width="20" height="20" fill="#4a4a4a"/>
  <rect x="90" y="155" width="20" height="20" fill="#4a4a4a"/>
  <rect x="115" y="155" width="20" height="20" fill="#4a4a4a"/>
  <rect x="140" y="155" width="20" height="20" fill="#4a4a4a"/>
  <rect x="40" y="180" width="20" height="20" fill="#00ff80"/>
  <rect x="65" y="180" width="20" height="20" fill="#4a4a4a"/>
  <rect x="90" y="180" width="20" height="20" fill="#ffff00"/>
  <rect x="115" y="180" width="20" height="20" fill="#4a4a4a"/>
  <rect x="140" y="180" width="20" height="20" fill="#4a4a4a"/>
  <text x="100" y="250" font-family="Arial" font-size="12" fill="#888" text-anchor="middle">64KB • CHILL BGM</text>
</svg>
